<svg width="128" height="62" viewBox="0 0 128 62" fill="none" xmlns="http://www.w3.org/2000/svg">
<path d="M2.17 57.14V58.6C2.17 59.15 2.27 59.27 3.18 59.42V59.52C2.12 59.48 1.06 59.48 0 59.52V59.42C0.69 59.26 0.8 59.15 0.8 58.6V54.43C0.8 53.88 0.7 53.76 0 53.61V53.51C0.65 53.55 1.45 53.55 2.37 53.51C4.01 53.45 5.02 54.1 5.02 55.32C5.02 56.43 4.05 57.23 2.68 57.23C2.5 57.23 2.31 57.21 2.16 57.15L2.17 57.14ZM2.17 53.95V56.73C2.3 56.79 2.43 56.82 2.56 56.82C3.13 56.82 3.56 56.22 3.56 55.4C3.56 54.41 3.14 53.94 2.37 53.94C2.3 53.94 2.21 53.95 2.16 53.96L2.17 53.95Z" fill="#231815"/>
<path d="M5.35999 59.43C5.73999 59.36 5.86999 59.24 5.86999 58.83V56.92C5.86999 56.54 5.70999 56.37 5.35999 56.32V56.22C5.90999 56.07 6.46999 55.9 6.99999 55.7L7.09999 55.72L7.17999 56.99H7.24999C7.40999 56.21 7.85999 55.65 8.36999 55.65C8.60999 55.65 8.79999 55.85 8.79999 56.32C8.79999 56.58 8.64999 56.92 8.53999 56.99H8.46999C8.35999 56.92 8.21999 56.89 8.08999 56.89C7.71999 56.89 7.37999 57.14 7.17999 57.57V58.83C7.17999 59.24 7.30999 59.35 7.83999 59.43V59.53C7.01999 59.49 6.17999 59.49 5.35999 59.53V59.43Z" fill="#231815"/>
<path d="M13.04 57.65C13.04 58.87 12.2 59.68 10.93 59.68C9.72999 59.68 8.92999 58.87 8.92999 57.66C8.92999 56.45 9.76999 55.63 11.03 55.63C12.29 55.63 13.04 56.44 13.04 57.65ZM11.69 58.11C11.69 56.85 11.38 56.02 10.9 56.02C10.5 56.02 10.27 56.51 10.27 57.26C10.27 58.49 10.57 59.3 11.07 59.3C11.45 59.3 11.69 58.83 11.69 58.11Z" fill="#231815"/>
<path d="M17.5 53.69C17.5 53.99 17.27 54.31 16.91 54.54H16.81C16.61 53.68 16.27 53.25 15.87 53.25C15.47 53.25 15.2 53.69 15.2 54.53V55.78H16.37V56.12H15.2V58.83C15.2 59.24 15.33 59.35 15.86 59.43V59.53C15.04 59.49 14.2 59.49 13.38 59.53V59.43C13.76 59.36 13.9 59.24 13.9 58.83V56.12L13.29 56.08V55.82L13.9 55.78V55.43C13.9 53.89 14.8 52.86 16.16 52.86C16.9 52.86 17.52 53.23 17.52 53.68L17.5 53.69Z" fill="#231815"/>
<path d="M19.86 58.25C19.6 59.24 18.89 59.68 18.19 59.68C17.21 59.68 16.48 58.87 16.48 57.8C16.48 56.55 17.28 55.63 18.47 55.63C19.46 55.63 19.84 56.27 19.84 56.71C19.84 56.93 19.75 57.11 19.57 57.11H17.59C17.59 58.14 18.05 58.68 18.74 58.68C19.08 58.68 19.42 58.52 19.77 58.19L19.86 58.24V58.25ZM17.6 56.78H18.58V56.74C18.58 56.25 18.45 55.97 18.15 55.97C17.85 55.97 17.64 56.24 17.6 56.78Z" fill="#231815"/>
<path d="M20.28 58.93C20.28 58.71 20.46 58.49 20.79 58.31H20.89C21.06 58.81 21.45 59.29 22 59.29C22.25 59.29 22.39 59.15 22.39 58.92C22.39 58.5 21.94 58.31 21.45 58.1C20.92 57.87 20.37 57.56 20.37 56.85C20.37 56.11 21.03 55.61 22 55.61C22.62 55.61 23.41 55.86 23.41 56.3C23.41 56.49 23.25 56.67 22.95 56.86H22.85C22.65 56.43 22.24 55.99 21.79 55.99C21.56 55.99 21.42 56.12 21.42 56.33C21.42 56.69 21.78 56.85 22.21 57.02C22.78 57.27 23.44 57.55 23.44 58.35C23.44 59.15 22.77 59.65 21.75 59.65C21.09 59.65 20.29 59.39 20.29 58.9L20.28 58.93Z" fill="#231815"/>
<path d="M24.04 58.93C24.04 58.71 24.22 58.49 24.55 58.31H24.65C24.82 58.81 25.21 59.29 25.76 59.29C26.01 59.29 26.15 59.15 26.15 58.92C26.15 58.5 25.7 58.31 25.21 58.1C24.68 57.87 24.13 57.56 24.13 56.85C24.13 56.11 24.79 55.61 25.76 55.61C26.38 55.61 27.17 55.86 27.17 56.3C27.17 56.49 27.01 56.67 26.71 56.86H26.61C26.41 56.43 26 55.99 25.55 55.99C25.32 55.99 25.18 56.12 25.18 56.33C25.18 56.69 25.54 56.85 25.97 57.02C26.54 57.27 27.2 57.55 27.2 58.35C27.2 59.15 26.53 59.65 25.51 59.65C24.85 59.65 24.05 59.39 24.05 58.9L24.04 58.93Z" fill="#231815"/>
<path d="M30.03 59.43V59.53C29.25 59.49 28.48 59.49 27.71 59.53V59.43C28.09 59.36 28.22 59.24 28.22 58.83V56.92C28.22 56.54 28.06 56.37 27.71 56.32V56.22C28.3 56.06 28.88 55.89 29.43 55.7L29.53 55.72V58.84C29.53 59.25 29.66 59.36 30.03 59.44V59.43ZM28.13 54.45C28.13 54.04 28.45 53.73 28.87 53.73C29.29 53.73 29.61 54.04 29.61 54.45C29.61 54.86 29.29 55.19 28.87 55.19C28.45 55.19 28.13 54.87 28.13 54.45Z" fill="#231815"/>
<path d="M34.46 57.65C34.46 58.87 33.62 59.68 32.35 59.68C31.15 59.68 30.35 58.87 30.35 57.66C30.35 56.45 31.19 55.63 32.45 55.63C33.71 55.63 34.46 56.44 34.46 57.65ZM33.11 58.11C33.11 56.85 32.8 56.02 32.32 56.02C31.92 56.02 31.69 56.51 31.69 57.26C31.69 58.49 31.99 59.3 32.49 59.3C32.87 59.3 33.11 58.83 33.11 58.11Z" fill="#231815"/>
<path d="M39.68 59.43V59.53C38.92 59.49 38.15 59.49 37.39 59.53V59.43C37.73 59.36 37.86 59.24 37.86 58.83V57.12C37.86 56.66 37.65 56.43 37.28 56.43C36.98 56.43 36.77 56.6 36.61 56.93V58.84C36.61 59.25 36.74 59.36 37.04 59.44V59.54C36.29 59.5 35.53 59.5 34.78 59.54V59.44C35.16 59.37 35.3 59.25 35.3 58.84V56.93C35.3 56.55 35.14 56.38 34.78 56.33V56.23C35.33 56.08 35.89 55.91 36.42 55.71L36.52 55.73L36.6 56.43H36.67C36.88 56 37.34 55.65 37.94 55.65C38.72 55.65 39.15 56.13 39.15 57.05V58.85C39.15 59.26 39.28 59.37 39.66 59.45L39.68 59.43Z" fill="#231815"/>
<path d="M40.11 58.95C40.11 58.26 40.82 57.98 41.71 57.66L42.14 57.5V56.99C42.14 56.3 42.05 56.02 41.84 56.02C41.58 56.02 41.19 56.59 41.03 57.29H40.93C40.5 57.19 40.28 56.95 40.28 56.7C40.28 56.21 41.09 55.63 42.13 55.63C42.93 55.63 43.45 56.07 43.45 56.9V58.53C43.45 58.79 43.53 58.9 43.73 58.9C43.82 58.9 43.94 58.87 44.1 58.79L44.17 58.86C44.01 59.36 43.51 59.67 43.01 59.67C42.51 59.67 42.16 59.36 42.15 58.87H42.08C41.86 59.47 41.3 59.67 40.94 59.67C40.45 59.67 40.13 59.35 40.13 58.94L40.11 58.95ZM42.14 58.42V57.82L41.95 57.89C41.5 58.06 41.33 58.34 41.33 58.55C41.33 58.76 41.45 58.88 41.64 58.88C41.9 58.88 42.05 58.67 42.14 58.42Z" fill="#231815"/>
<path d="M46.7 59.43V59.53C45.93 59.49 45.17 59.49 44.4 59.53V59.43C44.78 59.36 44.92 59.24 44.92 58.83V54.15C44.92 53.77 44.76 53.6 44.4 53.55V53.45C44.99 53.29 45.57 53.12 46.12 52.93L46.22 52.95V58.84C46.22 59.25 46.35 59.36 46.69 59.44L46.7 59.43Z" fill="#231815"/>
<path d="M50.93 54.8H50.86L50.7 58.23C50.66 59.08 51.07 59.3 51.72 59.43V59.53C50.91 59.49 50.09 59.49 49.27 59.53V59.43C49.92 59.26 50.13 58.97 50.18 58.23L50.38 54.83C50.43 54.07 50.25 53.82 49.51 53.61V53.51C50.29 53.55 51.08 53.55 51.85 53.51L53.67 57.4H53.74L55.38 53.51C56.08 53.55 56.8 53.55 57.5 53.51V53.61C56.87 53.76 56.72 53.93 56.74 54.45C56.8 55.84 56.87 57.21 56.98 58.59C57.03 59.15 57.11 59.22 57.79 59.42V59.52C56.81 59.48 55.81 59.48 54.83 59.52V59.42C55.47 59.26 55.63 59.12 55.6 58.59C55.53 57.37 55.47 56.12 55.43 54.88H55.36L53.34 59.68H53.2L50.94 54.8H50.93Z" fill="#231815"/>
<path d="M58.12 58.95C58.12 58.26 58.83 57.98 59.72 57.66L60.15 57.5V56.99C60.15 56.3 60.06 56.02 59.85 56.02C59.59 56.02 59.2 56.59 59.04 57.29H58.94C58.51 57.19 58.29 56.95 58.29 56.7C58.29 56.21 59.1 55.63 60.14 55.63C60.94 55.63 61.46 56.07 61.46 56.9V58.53C61.46 58.79 61.55 58.9 61.74 58.9C61.83 58.9 61.95 58.87 62.11 58.79L62.17 58.86C62.01 59.36 61.51 59.67 61.01 59.67C60.51 59.67 60.16 59.36 60.15 58.87H60.08C59.86 59.47 59.3 59.67 58.94 59.67C58.45 59.67 58.12 59.35 58.12 58.94V58.95ZM60.16 58.42V57.82L59.97 57.89C59.52 58.06 59.35 58.34 59.35 58.55C59.35 58.76 59.47 58.88 59.66 58.88C59.92 58.88 60.07 58.67 60.16 58.42Z" fill="#231815"/>
<path d="M67.31 59.43V59.53C66.55 59.49 65.78 59.49 65.02 59.53V59.43C65.36 59.36 65.49 59.24 65.49 58.83V57.12C65.49 56.66 65.28 56.43 64.91 56.43C64.61 56.43 64.4 56.6 64.24 56.93V58.84C64.24 59.25 64.37 59.36 64.67 59.44V59.54C63.92 59.5 63.16 59.5 62.41 59.54V59.44C62.79 59.37 62.92 59.25 62.92 58.84V56.93C62.92 56.55 62.76 56.38 62.41 56.33V56.23C62.96 56.08 63.52 55.91 64.05 55.71L64.15 55.73L64.23 56.43H64.3C64.51 56 64.97 55.65 65.57 55.65C66.35 55.65 66.78 56.13 66.78 57.05V58.85C66.78 59.26 66.91 59.37 67.29 59.45L67.31 59.43Z" fill="#231815"/>
<path d="M67.73 58.95C67.73 58.26 68.44 57.98 69.33 57.66L69.76 57.5V56.99C69.76 56.3 69.67 56.02 69.46 56.02C69.2 56.02 68.81 56.59 68.65 57.29H68.55C68.12 57.19 67.9 56.95 67.9 56.7C67.9 56.21 68.71 55.63 69.75 55.63C70.55 55.63 71.07 56.07 71.07 56.9V58.53C71.07 58.79 71.15 58.9 71.35 58.9C71.44 58.9 71.56 58.87 71.72 58.79L71.79 58.86C71.63 59.36 71.13 59.67 70.63 59.67C70.13 59.67 69.78 59.36 69.77 58.87H69.7C69.48 59.47 68.92 59.67 68.56 59.67C68.07 59.67 67.75 59.35 67.75 58.94L67.73 58.95ZM69.77 58.42V57.82L69.58 57.89C69.13 58.06 68.96 58.34 68.96 58.55C68.96 58.76 69.08 58.88 69.27 58.88C69.53 58.88 69.68 58.67 69.77 58.42Z" fill="#231815"/>
<path d="M71.84 60.85C71.84 60.53 72.2 60.19 72.97 59.98C72.42 59.89 71.98 59.72 71.98 59.28C71.98 58.92 72.4 58.47 72.98 58.27C72.44 58.07 72.1 57.68 72.1 57.13C72.1 56.24 72.84 55.64 73.94 55.64C74.37 55.64 74.74 55.72 75.03 55.88C75.21 55.53 75.31 55.2 75.33 54.87L75.4 54.8C75.92 54.9 76.21 55.15 76.21 55.41C76.21 55.67 75.92 56 75.36 56.12C75.57 56.34 75.7 56.63 75.7 56.98C75.7 57.87 74.97 58.41 73.86 58.41C73.66 58.41 73.47 58.39 73.3 58.35C73.15 58.41 73.05 58.5 73.05 58.6C73.05 58.82 73.62 58.84 74.27 58.92C75.13 59.02 76.14 59.23 76.14 60.15C76.14 60.86 75.29 61.72 73.71 61.72C72.55 61.72 71.86 61.3 71.86 60.85H71.84ZM75.05 60.65C75.05 60.24 74.43 60.15 73.76 60.08C73.64 60.08 73.53 60.06 73.4 60.04C73.13 60.22 73.01 60.43 73.01 60.65C73.01 60.99 73.35 61.31 73.97 61.31C74.63 61.31 75.06 61.05 75.06 60.65H75.05ZM74.38 57.27C74.38 56.46 74.17 55.98 73.82 55.98C73.56 55.98 73.41 56.27 73.41 56.79C73.41 57.6 73.63 58.08 73.97 58.08C74.24 58.08 74.38 57.79 74.38 57.27Z" fill="#231815"/>
<path d="M79.82 58.25C79.56 59.24 78.86 59.68 78.15 59.68C77.17 59.68 76.43 58.87 76.43 57.8C76.43 56.55 77.23 55.63 78.42 55.63C79.41 55.63 79.79 56.27 79.79 56.71C79.79 56.93 79.7 57.11 79.52 57.11H77.54C77.54 58.14 78 58.68 78.69 58.68C79.03 58.68 79.37 58.52 79.72 58.19L79.81 58.24L79.82 58.25ZM77.56 56.78H78.54V56.74C78.54 56.25 78.41 55.97 78.11 55.97C77.81 55.97 77.6 56.24 77.56 56.78Z" fill="#231815"/>
<path d="M87.48 59.43V59.53C86.71 59.49 85.95 59.49 85.18 59.53V59.43C85.52 59.36 85.65 59.24 85.65 58.83V57.12C85.65 56.66 85.47 56.43 85.11 56.43C84.82 56.43 84.61 56.65 84.46 56.94C84.46 57.01 84.46 57.08 84.46 57.16V58.85C84.46 59.26 84.59 59.37 84.9 59.45V59.55C84.17 59.51 83.44 59.51 82.71 59.55V59.45C83.02 59.38 83.15 59.26 83.15 58.85V57.14C83.15 56.7 82.94 56.45 82.6 56.45C82.32 56.45 82.12 56.64 81.96 56.95V58.86C81.96 59.27 82.09 59.38 82.4 59.46V59.56C81.64 59.52 80.89 59.52 80.13 59.56V59.46C80.51 59.39 80.64 59.27 80.64 58.86V56.95C80.64 56.57 80.48 56.4 80.13 56.35V56.25C80.69 56.1 81.24 55.93 81.77 55.73L81.87 55.75L81.95 56.45H82.02C82.27 55.89 82.78 55.67 83.27 55.67C83.83 55.67 84.23 55.89 84.38 56.49H84.45C84.67 55.99 85.17 55.67 85.76 55.67C86.49 55.67 86.94 56.19 86.94 57.07V58.87C86.94 59.28 87.07 59.39 87.45 59.47L87.48 59.43Z" fill="#231815"/>
<path d="M91.2 58.25C90.94 59.24 90.24 59.68 89.53 59.68C88.55 59.68 87.81 58.87 87.81 57.8C87.81 56.55 88.61 55.63 89.8 55.63C90.79 55.63 91.17 56.27 91.17 56.71C91.17 56.93 91.08 57.11 90.9 57.11H88.92C88.92 58.14 89.38 58.68 90.07 58.68C90.41 58.68 90.75 58.52 91.1 58.19L91.19 58.24L91.2 58.25ZM88.94 56.78H89.92V56.74C89.92 56.25 89.79 55.97 89.49 55.97C89.19 55.97 88.98 56.24 88.94 56.78Z" fill="#231815"/>
<path d="M96.42 59.43V59.53C95.66 59.49 94.89 59.49 94.13 59.53V59.43C94.47 59.36 94.6 59.24 94.6 58.83V57.12C94.6 56.66 94.39 56.43 94.02 56.43C93.72 56.43 93.51 56.6 93.35 56.93V58.84C93.35 59.25 93.48 59.36 93.78 59.44V59.54C93.03 59.5 92.27 59.5 91.52 59.54V59.44C91.9 59.37 92.03 59.25 92.03 58.84V56.93C92.03 56.55 91.87 56.38 91.52 56.33V56.23C92.07 56.08 92.63 55.91 93.16 55.71L93.26 55.73L93.34 56.43H93.41C93.62 56 94.08 55.65 94.68 55.65C95.46 55.65 95.89 56.13 95.89 57.05V58.85C95.89 59.26 96.02 59.37 96.4 59.45L96.42 59.43Z" fill="#231815"/>
<path d="M97.17 58.32V56.12L96.65 56.06V55.97C97.29 55.63 97.87 55.23 98.37 54.79L98.47 54.81V55.78H99.59V56.12H98.47V58.14C98.47 58.69 98.59 58.92 98.96 58.92C99.17 58.92 99.4 58.83 99.58 58.71L99.65 58.78C99.37 59.45 98.76 59.68 98.3 59.68C97.63 59.68 97.17 59.14 97.17 58.32Z" fill="#231815"/>
<path d="M108.4 57.06C108 57.22 107.88 57.33 107.88 57.88V59.18C107.19 59.49 106.53 59.68 105.76 59.68C103.7 59.68 102.32 58.43 102.32 56.56C102.32 54.69 103.79 53.35 105.85 53.35C106.47 53.35 107.13 53.47 107.72 53.59C107.68 54.16 107.65 54.73 107.65 55.3H107.55C107.16 54.37 106.74 53.77 105.78 53.77C104.62 53.77 103.88 54.79 103.88 56.32C103.88 58.08 104.71 59.25 106.01 59.25C106.19 59.25 106.36 59.24 106.52 59.21V58.08C106.52 57.37 106.39 57.21 105.42 57.05V56.95C106.41 56.99 107.41 56.99 108.4 56.95V57.05V57.06Z" fill="#231815"/>
<path d="M108.73 59.43C109.11 59.36 109.24 59.24 109.24 58.83V56.92C109.24 56.54 109.08 56.37 108.73 56.32V56.22C109.28 56.07 109.84 55.9 110.37 55.7L110.47 55.72L110.55 56.99H110.62C110.78 56.21 111.23 55.65 111.74 55.65C111.98 55.65 112.17 55.85 112.17 56.32C112.17 56.58 112.02 56.92 111.91 56.99H111.84C111.73 56.92 111.59 56.89 111.46 56.89C111.09 56.89 110.75 57.14 110.55 57.57V58.83C110.55 59.24 110.68 59.35 111.21 59.43V59.53C110.39 59.49 109.55 59.49 108.73 59.53V59.43Z" fill="#231815"/>
<path d="M116.41 57.65C116.41 58.87 115.57 59.68 114.3 59.68C113.1 59.68 112.3 58.87 112.3 57.66C112.3 56.45 113.14 55.63 114.4 55.63C115.66 55.63 116.41 56.44 116.41 57.65ZM115.06 58.11C115.06 56.85 114.75 56.02 114.27 56.02C113.87 56.02 113.64 56.51 113.64 57.26C113.64 58.49 113.94 59.3 114.44 59.3C114.82 59.3 115.06 58.83 115.06 58.11Z" fill="#231815"/>
<path d="M117.16 58.38V56.92C117.16 56.54 117 56.37 116.65 56.32V56.22C117.24 56.06 117.82 55.89 118.37 55.7L118.47 55.72V58.21C118.47 58.67 118.62 58.9 118.99 58.9C119.27 58.9 119.47 58.7 119.62 58.4V56.92C119.62 56.54 119.46 56.37 119.1 56.32V56.22C119.69 56.06 120.27 55.89 120.82 55.7L120.92 55.72V58.41C120.92 58.79 121.1 58.97 121.44 59.01V59.11C120.89 59.26 120.33 59.43 119.8 59.63L119.7 59.61L119.62 58.91H119.55C119.3 59.43 118.9 59.69 118.31 59.69C117.59 59.69 117.16 59.2 117.16 58.39V58.38Z" fill="#231815"/>
<path d="M121.69 61.47C122.07 61.4 122.21 61.28 122.21 60.87V56.91C122.21 56.54 122.05 56.36 121.69 56.31V56.21C122.23 56.06 122.79 55.89 123.33 55.69L123.43 55.71L123.51 56.32H123.58C123.82 55.89 124.2 55.64 124.72 55.64C125.61 55.64 126.21 56.3 126.21 57.42C126.21 58.84 125.39 59.69 124.01 59.69C123.85 59.69 123.68 59.69 123.5 59.65V60.88C123.5 61.29 123.63 61.4 124.16 61.48V61.58C123.34 61.54 122.5 61.54 121.68 61.58V61.48L121.69 61.47ZM124.94 57.84C124.94 56.85 124.68 56.42 124.14 56.42C123.89 56.42 123.67 56.57 123.51 56.79V59.05C123.7 59.22 123.89 59.29 124.07 59.29C124.7 59.29 124.93 58.77 124.93 57.83L124.94 57.84Z" fill="#231815"/>
<path d="M40.16 31.01V38.22C40.16 40.95 40.67 41.5 45.15 42.29V42.8C39.93 42.62 34.71 42.62 29.49 42.8V42.29C32.91 41.5 33.42 40.95 33.42 38.22V17.66C33.42 14.93 32.91 14.38 29.49 13.59V13.08C32.68 13.26 36.65 13.26 41.18 13.08C49.27 12.76 54.25 15.99 54.25 22C54.25 27.45 49.45 31.43 42.7 31.43C41.82 31.43 40.9 31.34 40.16 31.01ZM40.16 15.26V28.98C40.81 29.26 41.45 29.4 42.1 29.4C44.92 29.4 47.04 26.44 47.04 22.38C47.04 17.48 44.96 15.17 41.17 15.17C40.8 15.17 40.38 15.22 40.15 15.26H40.16Z" fill="#94252A"/>
<path d="M62.89 19.46H62.52L61.73 36.37C61.55 40.57 63.58 41.64 66.77 42.28V42.79C62.75 42.61 58.73 42.61 54.71 42.79V42.28C57.9 41.45 58.96 40.02 59.19 36.37L60.16 19.6C60.39 15.86 59.51 14.61 55.86 13.59V13.08C59.69 13.26 63.58 13.26 67.41 13.08L76.37 32.25H76.74L84.83 13.08C88.29 13.26 91.81 13.26 95.27 13.08V13.59C92.17 14.33 91.44 15.16 91.53 17.75C91.81 24.59 92.18 31.38 92.73 38.17C92.96 40.94 93.38 41.27 96.7 42.28V42.79C91.85 42.61 86.95 42.61 82.1 42.79V42.28C85.24 41.49 86.03 40.8 85.89 38.17C85.57 32.16 85.24 25.97 85.06 19.87H84.69L74.71 43.53H74.02L62.89 19.46Z" fill="#94252A"/>
<path d="M127.57 30.6C125.58 31.39 125.03 31.94 125.03 34.67V41.09C121.61 42.61 118.38 43.54 114.59 43.54C104.43 43.54 97.63 37.4 97.63 28.16C97.63 18.92 104.88 12.36 115.05 12.36C118.1 12.36 121.38 12.96 124.24 13.52C124.06 16.34 123.92 19.16 123.92 21.97H123.41C121.52 17.4 119.44 14.44 114.68 14.44C108.95 14.44 105.3 19.48 105.3 27.01C105.3 35.7 109.41 41.47 115.79 41.47C116.67 41.47 117.5 41.42 118.28 41.29V35.7C118.28 32.19 117.63 31.4 112.87 30.62V30.11C117.77 30.29 122.66 30.29 127.56 30.11V30.62L127.57 30.6Z" fill="#94252A"/>
<path d="M21.5 43.29L0.0100098 47.81V0L21.5 4.52V43.29Z" fill="#94252A"/>
<path d="M5.87001 9.36L0.0100098 14.47V28.4L9.56001 19.37L13.16 22.84L16.46 19.58L5.87001 9.36Z" fill="#BDB2B2"/>
<path d="M21.5 14.62L13.16 22.84L9.56 19.37L6.06 22.68L17.06 33.3L21.5 28.56V14.62Z" fill="#C12C1F"/>
</svg>
